<?xml version="1.0" encoding="UTF-8" standalone="no"?>
<svg
   viewBox="0 0 261.76 226.69"
   version="1.1"
   id="svg6"
   sodipodi:docname="logo.svg"
   inkscape:version="1.1.2 (0a00cf5339, 2022-02-04)"
   xmlns:inkscape="http://www.inkscape.org/namespaces/inkscape"
   xmlns:sodipodi="http://sodipodi.sourceforge.net/DTD/sodipodi-0.dtd"
   xmlns="http://www.w3.org/2000/svg"
   xmlns:svg="http://www.w3.org/2000/svg">
  <defs
     id="defs10" />
  <sodipodi:namedview
     id="namedview8"
     pagecolor="#ffffff"
     bordercolor="#666666"
     borderopacity="1.0"
     inkscape:pageshadow="2"
     inkscape:pageopacity="0.0"
     inkscape:pagecheckerboard="0"
     showgrid="false"
     inkscape:zoom="2.7231206"
     inkscape:cx="134.0374"
     inkscape:cy="106.86269"
     inkscape:window-width="1920"
     inkscape:window-height="1011"
     inkscape:window-x="0"
     inkscape:window-y="0"
     inkscape:window-maximized="1"
     inkscape:current-layer="svg6" />
  <path
     id="path5832"
     style="fill:#f2f2f2;fill-opacity:1;stroke-width:7.70317"
     d="m 123.55859,2.7871094 c -2.94379,0.1873645 -5.87681,0.4801892 -8.79477,0.9146266 -4.11804,0.672135 -8.20373,1.5695959 -12.18728,2.8195163 -3.486039,1.0473061 -6.885532,2.3706766 -10.213019,3.8422437 -3.537671,1.625521 -6.993809,3.433741 -10.283355,5.51945 -3.131415,1.921165 -6.093926,4.10717 -8.956594,6.40613 -3.021024,2.508976 -5.915637,5.174 -8.573917,8.066969 -2.474661,2.624064 -4.73134,5.446585 -6.868051,8.350152 -2.267742,3.20549 -4.38289,6.522844 -6.20319,10.004329 -1.733104,3.201945 -3.197575,6.543349 -4.519984,9.933587 -1.360327,3.683461 -2.547548,7.43448 -3.402789,11.269119 -0.852685,3.573124 -1.406228,7.212696 -1.803965,10.862477 -0.370396,3.941378 -0.520712,7.903972 -0.365208,11.86089 0.154222,4.39546 0.661106,8.777321 1.484897,13.097691 0.823098,4.25302 1.962495,8.44361 3.408403,12.52772 1.446515,4.04832 3.189679,7.98924 5.213227,11.7828 2.047717,3.81736 4.386791,7.4752 6.973983,10.94979 2.988545,4.1149 6.408823,7.88467 9.6668,11.78316 19.971053,23.55258 39.941942,47.1053 59.913102,70.65779 22.25128,-26.25455 44.52609,-52.48986 66.76223,-78.75682 4.03198,-5.04965 7.70395,-10.40895 10.61277,-16.19045 6.74019,-13.19192 9.97731,-28.14599 9.25896,-42.949063 -0.16845,-3.535428 -0.53752,-7.063623 -1.12389,-10.554265 -0.65919,-3.871324 -1.56707,-7.698851 -2.74361,-11.445934 -0.97894,-3.192776 -2.20339,-6.303096 -3.51451,-9.373002 -1.65789,-3.597347 -3.45667,-7.136448 -5.5812,-10.483442 -1.86593,-3.086614 -4.01677,-5.987947 -6.23911,-8.825152 -2.55355,-3.071323 -5.23167,-6.04705 -8.17613,-8.751032 -2.70982,-2.578576 -5.63466,-4.924084 -8.65162,-7.13171 -3.20491,-2.268715 -6.53082,-4.369797 -10.01167,-6.190475 C 165.43356,11.059161 162.093,9.5925534 158.69911,8.280566 155.0162,6.9187051 151.26128,5.7449213 147.42703,4.8897218 143.88425,4.0511769 140.27733,3.5020401 136.65982,3.109273 132.75029,2.746226 128.81977,2.5880046 124.89519,2.752385 Z"
     sodipodi:nodetypes="ccccccccccccccccccccccccccccccccccc" />
  <path
     id="path822"
     style="stroke-width:7.70317;fill:#16a34a;fill-opacity:1"
     d="m 127.96875,48.876953 c -2.92118,0.04635 -5.84022,0.327819 -8.69152,0.979253 -3.17349,0.692857 -6.25241,1.795316 -9.16976,3.222301 -2.849,1.415126 -5.53299,3.15858 -7.98101,5.19169 -2.441395,2.039029 -4.641129,4.36365 -6.547965,6.910803 -1.898905,2.551854 -3.494501,5.325236 -4.756043,8.246052 -1.262162,2.956457 -2.167148,6.061119 -2.716135,9.22893 -0.520534,3.13914 -0.675038,6.334773 -0.468686,9.510671 0.226414,3.173269 0.82335,6.316342 1.765978,9.355577 0.957772,3.03403 2.274243,5.95032 3.897298,8.68747 1.647725,2.72108 3.600923,5.25453 5.820887,7.53472 2.234866,2.26439 4.727566,4.27049 7.418586,5.96972 2.70266,1.67963 5.59427,3.04808 8.60799,4.07188 3.01879,1.00496 6.15154,1.65415 9.32001,1.94944 3.13612,0.26733 6.29996,0.17721 9.41612,-0.27332 3.17963,-0.46972 6.29793,-1.32352 9.28494,-2.51101 2.94529,-1.19941 5.74858,-2.73746 8.34616,-4.57353 2.58616,-1.85141 4.95379,-4.0015 7.05433,-6.39074 2.08062,-2.40586 3.88419,-5.04705 5.36649,-7.86216 1.46706,-2.82115 2.60031,-5.81151 3.38757,-8.892897 0.76994,-3.085618 1.17478,-6.257202 1.22344,-9.437376 0.0227,-3.182092 -0.32453,-6.363005 -1.0251,-9.467987 -0.72557,-3.097622 -1.79713,-6.11167 -3.20663,-8.965379 -1.42259,-2.846137 -3.18044,-5.518477 -5.2112,-7.968268 -2.04888,-2.433678 -4.37794,-4.625488 -6.9257,-6.531555 -2.56062,-1.889026 -5.33899,-3.476327 -8.26176,-4.735508 -2.93063,-1.238413 -6.00148,-2.133225 -9.13714,-2.675387 -2.25316,-0.381301 -4.52757,-0.537968 -6.81115,-0.57339 z m 2.14648,19.511719 c 3.99744,0.428246 7.87402,1.96602 11.02283,4.474747 3.30204,2.606951 5.77484,6.225498 7.0414,10.235951 1.22918,3.95698 1.27702,8.267553 0.10154,12.243721 -1.18379,4.023021 -3.59004,7.677489 -6.83782,10.334849 -3.28885,2.71995 -7.42313,4.38615 -11.67619,4.73531 -4.21302,0.34405 -8.51897,-0.6068 -12.18757,-2.71133 -3.68072,-2.1003 -6.6957,-5.33446 -8.53615,-9.152593 -1.8371,-3.812139 -2.48954,-8.176844 -1.84682,-12.360458 0.63571,-4.147743 2.53809,-8.087614 5.40126,-11.157683 2.8973,-3.134979 6.77657,-5.33455 10.9452,-6.247828 2.15666,-0.475068 4.37358,-0.574978 6.57232,-0.394686 z" />
  <path
     id="path824"
     style="stroke-width:7.70317;fill:#f97316;fill-opacity:1"
     d="m 123.55859,2.7871094 c -2.94379,0.1873645 -5.87681,0.4801892 -8.79477,0.9146266 -4.11804,0.672135 -8.20373,1.5695959 -12.18728,2.8195163 -3.486039,1.0473061 -6.885532,2.3706766 -10.213019,3.8422437 -3.537671,1.625521 -6.993809,3.433741 -10.283355,5.51945 -3.131415,1.921165 -6.093926,4.10717 -8.956594,6.40613 -3.021024,2.508976 -5.915637,5.174 -8.573917,8.066969 -2.474661,2.624064 -4.73134,5.446585 -6.868051,8.350152 -2.267742,3.20549 -4.38289,6.522844 -6.20319,10.004329 -1.733104,3.201945 -3.197575,6.543349 -4.519984,9.933587 -1.360327,3.683461 -2.547548,7.43448 -3.402789,11.269119 -0.852685,3.573124 -1.406228,7.212696 -1.803965,10.862477 -0.370396,3.941378 -0.520712,7.903972 -0.365208,11.86089 0.154222,4.39546 0.661106,8.777321 1.484897,13.097691 0.823098,4.25302 1.962495,8.44361 3.408403,12.52772 1.446515,4.04832 3.189679,7.98924 5.213227,11.7828 2.047717,3.81736 4.386791,7.4752 6.973983,10.94979 2.988545,4.1149 6.408823,7.88467 9.6668,11.78316 19.971053,23.55258 39.941942,47.1053 59.913102,70.65779 22.25128,-26.25455 44.52609,-52.48986 66.76223,-78.75682 4.03198,-5.04965 7.70395,-10.40895 10.61277,-16.19045 6.74019,-13.19192 9.97731,-28.14599 9.25896,-42.949063 -0.16845,-3.535428 -0.53752,-7.063623 -1.12389,-10.554265 -0.65919,-3.871324 -1.56707,-7.698851 -2.74361,-11.445934 -0.97894,-3.192776 -2.20339,-6.303096 -3.51451,-9.373002 -1.65789,-3.597347 -3.45667,-7.136448 -5.5812,-10.483442 -1.86593,-3.086614 -4.01677,-5.987947 -6.23911,-8.825152 -2.55355,-3.071323 -5.23167,-6.04705 -8.17613,-8.751032 -2.70982,-2.578576 -5.63466,-4.924084 -8.65162,-7.13171 -3.20491,-2.268715 -6.53082,-4.369797 -10.01167,-6.190475 -3.20554,-1.725044 -6.5461,-3.1916516 -9.93999,-4.503639 -3.68291,-1.3618609 -7.43783,-2.5356447 -11.27208,-3.3908442 -3.54278,-0.8385449 -7.1497,-1.3876817 -10.76721,-1.7804488 -3.90953,-0.363047 -7.84005,-0.5212684 -11.76463,-0.356888 -0.44553,0.011575 -0.89107,0.02315 -1.3366,0.034724 z m 8.42188,19.3730466 c 3.62489,0.259011 7.23681,0.723264 10.78199,1.533413 3.88852,0.866471 7.69445,2.09338 11.37085,3.628192 3.95058,1.665781 7.74015,3.710447 11.31135,6.082323 3.02725,2.032498 5.88328,4.308031 8.56183,6.781258 3.14098,2.970819 6.03358,6.211437 8.56221,9.720041 2.35396,3.258638 4.43094,6.721418 6.15712,10.352143 1.994,4.127776 3.54128,8.467114 4.65257,12.913679 0.9481,3.83187 1.55571,7.74625 1.82883,11.684624 0.17525,2.981723 0.23305,5.988048 0.0297,8.902555 -0.41628,6.390436 -1.72172,12.577146 -3.92634,18.618566 -2.19478,5.99177 -5.27045,11.69394 -9.12077,16.86157 -2.71348,3.75155 -5.84656,7.16736 -8.80486,10.72264 -15.11268,17.82414 -30.22536,35.64829 -45.33804,53.47243 -17.23732,-20.33875 -34.494707,-40.6613 -51.719482,-61.01018 -2.926203,-3.73488 -5.67401,-7.62889 -7.86872,-11.84422 -1.900244,-3.56726 -3.445639,-7.32012 -4.666297,-11.17273 -1.176364,-3.75464 -2.018608,-7.61209 -2.523565,-11.514652 -0.504194,-3.942488 -0.635406,-7.927876 -0.452241,-11.897822 0.202819,-3.908523 0.744734,-7.796788 1.605992,-11.615028 0.87772,-3.81807 2.091278,-7.555614 3.602946,-11.170104 1.676289,-3.953296 3.724212,-7.748978 6.10948,-11.319604 2.024721,-3.02515 4.313681,-5.862409 6.7788,-8.538924 2.952606,-3.104194 6.158919,-5.974481 9.63776,-8.478068 3.767273,-2.736477 7.822721,-5.070077 12.073667,-6.96912 3.63976,-1.629357 7.42962,-2.916527 11.29842,-3.88315 3.83402,-0.942315 7.74907,-1.542145 11.6879,-1.81588 2.78751,-0.183582 5.57871,-0.160234 8.36893,-0.04395 z" />
</svg>
